<svg xmlns="http://www.w3.org/2000/svg" viewBox="0 0 84.863 112.5"><path fill="#c4c4c4" d="M72.158 61.501V22.412a6.994 6.994 0 0 0-6.992-6.996 6.946 6.946 0 0 0-3.828 1.163v-4.447a6.998 6.998 0 0 0-6.996-6.996 6.958 6.958 0 0 0-4.088 1.327 6.99 6.99 0 0 0-6.73-5.113 6.997 6.997 0 0 0-6.993 6.997v1.201a6.947 6.947 0 0 0-3.825-1.164 6.998 6.998 0 0 0-6.997 6.995v22.014a5.34 5.34 0 0 0-4.441-2.26c-1.185.002-2.474.322-3.908.975a1.446 1.446 0 0 0-.843 1.203s-.004.05-.028.224c-.17 1.214-1.236 7.072-6.974 14.417a1.444 1.444 0 0 0-.303 1.013c.008.063.745 9.061 3.72 18.184 1.494 4.564 3.536 9.17 6.437 12.739C22.241 87.438 26.125 90 30.989 90h.029l.158-.002L56.102 90c8.869-.002 16.058-7.189 16.058-16.055V61.52l.002-.019h-.004zm-46.45-11.856v8.983l-1.17-.347c-.121-.121-.456-.542-.479-1.952-.004-1.311.368-3.452 1.649-6.684zm30.394 37.457l-25.083.002c-3.824-.014-6.827-1.912-9.401-5.047-3.836-4.688-6.294-12.068-7.696-18.238a93.716 93.716 0 0 1-1.442-7.881 75.94 75.94 0 0 1-.326-2.662c5.289-6.932 6.744-12.676 7.125-14.828.818-.304 1.479-.416 1.989-.414 1.076.025 1.58.39 2.128 1.11 1.015 1.352 1.276 4.155 1.248 5.395 0 .149-.002.274-.004.371-2.645 5.475-3.47 8.996-3.478 11.42-.072 3.228 1.769 4.526 2.212 4.623l3.373 1.009c.225.066 1.185.135 1.185.135s.515.014 1.41.139c2.747.361 8.297 1.832 10.297 6.32.244.53.77.844 1.316.844.204 0 .409-.043.605-.136a1.447 1.447 0 0 0 .71-1.921c-1.874-4.04-5.534-6.047-8.567-7.058a22.48 22.48 0 0 0-5.095-1.048V15.379a4.102 4.102 0 0 1 4.097-4.096 4.092 4.092 0 0 1 3.826 2.638l-.001 31.881a1.448 1.448 0 1 0 2.898.015V8.347a4.102 4.102 0 0 1 4.095-4.098 4.101 4.101 0 0 1 4.097 4.098v39.627a1.45 1.45 0 0 0 2.899 0h-.002v-37.3a4.091 4.091 0 0 1 3.824-2.639 4.103 4.103 0 0 1 4.098 4.097v37.354a1.45 1.45 0 0 0 2.9 0h-.002V20.95a4.1 4.1 0 0 1 3.828-2.635 4.1 4.1 0 0 1 4.094 4.097v51.533c-.013 7.265-5.89 13.143-13.157 13.157z"/></svg>