<svg xmlns="http://www.w3.org/2000/svg" viewBox="0 0 84.863 112.5"><path fill="#c4c4c4" d="M66.143 36.478a7.11 7.11 0 0 0-.983-.071 6.95 6.95 0 0 0-3.041.711c0-.017.004-.035.004-.052a6.995 6.995 0 0 0-7-6.987 6.954 6.954 0 0 0-3.129.758l2.982-22.882A6.995 6.995 0 0 0 48.043 0a6.99 6.99 0 0 0-6.92 6.028l-5 33.249L27.42 7.389a6.998 6.998 0 0 0-8.57-4.944 6.999 6.999 0 0 0-4.939 8.57l5.846 24.242a10.05 10.05 0 0 0-1.866.526c-.258.098-.515.196-.782.318-.479.22-.801.677-.843 1.203 0 0-.004.052-.028.227-.17 1.212-1.238 7.071-6.975 14.416v.002a1.442 1.442 0 0 0-.234.452c-.003.012-.01.022-.015.035a1.453 1.453 0 0 0-.051.489c0 .013-.005.022-.004.034.008.063.745 9.061 3.721 18.184 1.494 4.565 3.537 9.172 6.437 12.742C21.99 87.439 25.876 90 30.746 90h.022c.08-.002.138-.002.178-.002L55.852 90c8.869-.002 16.058-7.193 16.058-16.061l.186-29.566a6.998 6.998 0 0 0-5.953-7.895zm-11.026-3.5h.006a4.095 4.095 0 0 1 4.062 4.669l-.416 2.96L57.125 52.3l-.199 1.427-.338 2.402c-.004.03-.016.057-.02.085a4.094 4.094 0 0 1-4.029 3.438c-.193 0-.387-.01-.576-.036a4.098 4.098 0 0 1-3.457-3.319c-.002-.013-.006-.025-.01-.039a4.03 4.03 0 0 1-.022-1.267l.893-6.349 1.127-8.021.58-4.117c.055-.393.172-.76.326-1.104.016-.038.026-.079.045-.115a4.107 4.107 0 0 1 3.672-2.307zM24.291 58.277c-.015-.016-.034-.035-.054-.061a1.45 1.45 0 0 1-.188-.347l-.035-.089-.003-.01c-.1-.299-.187-.752-.197-1.447 0-.081.006-.176.008-.262.003-.105.005-.209.013-.323.006-.095.02-.199.029-.3.013-.135.027-.269.046-.412.015-.108.035-.229.054-.344a16.964 16.964 0 0 1 .167-.868l.051-.215.88 4.902-.771-.224zM69.01 73.939c-.01 7.267-5.893 13.148-13.158 13.163H30.966l-.198.002c-3.826-.013-6.83-1.912-9.403-5.047-3.836-4.688-6.293-12.069-7.695-18.24a92.835 92.835 0 0 1-1.442-7.881 77.139 77.139 0 0 1-.326-2.662c.093-.123.176-.241.268-.363.19-.253.378-.508.558-.758.127-.178.248-.351.37-.525.174-.251.349-.5.514-.747.111-.168.218-.334.326-.5.161-.247.322-.494.473-.737.098-.158.19-.313.284-.471.147-.245.296-.488.434-.729.085-.147.165-.291.246-.437.136-.244.271-.485.397-.721l.208-.4c.124-.237.248-.478.362-.709.063-.123.117-.243.176-.364.112-.234.225-.469.328-.694.05-.11.095-.217.145-.326.101-.23.203-.459.295-.68.041-.098.077-.19.116-.286.091-.225.183-.448.265-.662.032-.083.06-.163.09-.245.082-.218.163-.436.235-.643l.068-.198c.072-.212.144-.422.207-.622.019-.058.033-.11.051-.167.063-.201.124-.4.178-.587.013-.044.022-.083.035-.126.054-.19.105-.378.15-.553.011-.044.021-.082.03-.125.042-.166.083-.33.117-.48.016-.067.027-.124.041-.187.025-.115.052-.233.073-.336.033-.164.061-.314.086-.449a6.72 6.72 0 0 1 1.374-.363l.034-.004a4.32 4.32 0 0 1 .579-.048c.339 0 .615.048.854.124.372.123.671.317.942.594.114.116.224.243.331.391.292.389.516.904.695 1.461.442 1.382.577 3.055.556 3.938 0 .148-.002.271-.004.368v.004c-.077.159-.141.304-.214.458-.156.331-.313.664-.458.979-.3.664-.563 1.286-.809 1.889-1.477 3.636-1.988 6.203-1.993 8.092-.007.336.017.64.047.935.222 2.186 1.365 3.278 1.933 3.595.093.051.169.08.225.094l.047.016.083.03 2.764.817.481.143c.129.04.261.057.393.059l.021.002c.026 0 .05-.01.076-.012.051-.003.102-.007.151-.015.444.01 2.527.1 4.832.819 2.619.819 5.386 2.379 6.744 5.336a1.45 1.45 0 0 0 1.318.846c.202 0 .407-.043.604-.135a1.447 1.447 0 0 0 .709-1.922c-1.858-4.012-5.494-5.953-8.513-6.891a21.998 21.998 0 0 0-4.706-.9l-.884-4.926-.385-2.146-.9-3.603c.131-.306.254-.602.402-.927.229-.502.471-1.022.735-1.563l.003-.008.033-.067c.084-.175.13-.349.144-.541.001-.021.012-.196.017-.492.002-.098.003-.21.003-.333-.005-.28-.016-.632-.035-1.013a17.444 17.444 0 0 0-.093-1.163c-.169-1.513-.586-3.343-1.655-4.899a5.903 5.903 0 0 0-.673-.78 5.175 5.175 0 0 0-2.064-1.282L16.718 10.3a4.24 4.24 0 0 1-.151-1.1 4.103 4.103 0 0 1 4.098-4.096 4.1 4.1 0 0 1 3.958 3.04l9.513 34.858.651 2.387c.041.15.109.283.19.407.314.479.889.737 1.473.629.021.004.04.013.061.017a1.453 1.453 0 0 0 1.649-1.218l.129-.862.51-3.395 5.189-34.524a4.1 4.1 0 0 1 4.628-3.503 4.1 4.1 0 0 1 3.485 4.629l-6.498 47.017a6.709 6.709 0 0 0-.065.968 6.992 6.992 0 0 0 7 7 6.997 6.997 0 0 0 6.574-4.646 6.95 6.95 0 0 0 4.698 1.863h.043c2.019 0 3.863-.885 5.154-2.31v16.478h.003zm.213-29.967l-.244 1.736-.139.989-.678 4.818-.258 1.836a4.107 4.107 0 0 1-4.627 3.485 4.085 4.085 0 0 1-3.416-3.172c-.01-.047-.027-.09-.035-.136-.004-.016-.01-.028-.012-.043a4.003 4.003 0 0 1-.024-1.275l.846-6.01.474-3.372c.035-.26.1-.521.188-.768a3.85 3.85 0 0 1 .186-.448c.029-.058.064-.108.097-.163.701-1.294 2.063-2.146 3.567-2.146h.013c.188 0 .381.012.576.04h.002a4.1 4.1 0 0 1 3.484 4.629z"/></svg>