<svg height="42" viewBox="0 0 62 42" width="62" xmlns="http://www.w3.org/2000/svg"><path d="m26.405502 27.325043 11.065735-.670941c.796601 2.330656 1.05901 3.13172 1.815735 4.068341 1.231762 1.515525 2.991547 2.273365 5.279198 2.273365 1.706959 0 3.022426-.387398 3.946247-1.162274.923904-.774875 1.385853-1.673183 1.385853-2.694917 0-.970698-.439926-1.839167-1.319855-2.605565-.879856-.766391-2.921166-1.490079-6.12394-2.171215-5.244007-1.140924-8.983501-2.656599-11.218475-4.546806-2.252462-1.890356-3.378731-4.29995-3.378731-7.229074 0-1.924284.576302-3.742169 1.728983-5.453671 1.152601-1.711498 2.885973-3.056797 5.200037-4.035976 2.314064-.979176 5.486035-1.468804 9.515984-1.468804 4.944847 0 8.715214.889824 11.310882 2.669396 2.595593 1.779575 4.139767 4.610717 4.632519 8.493505l-11.271301.6385c-.299164-1.685905-.928291-2.912017-1.887306-3.678335-.959092-.766323-2.283265-1.149479-3.972664-1.149479-1.39016 0-2.437271.285248-3.141167.855748-.703899.570499-1.055809 1.264499-1.055809 2.081859 0 .596018.290306 1.132443.871075 1.609346.563057.493794 1.90047.953585 4.012237 1.379303 5.226456 1.089884 8.970417 2.192568 11.231655 3.307972 2.261307 1.115479 3.90667 2.499169 4.936139 4.150999 1.029472 1.651827 1.544174 3.499552 1.544174 5.543099 0 2.401112-.686272 4.614883-2.058949 6.641464-1.372604 2.026581-3.290714 3.563389-5.75439 4.610718-2.463608 1.047401-5.569584 1.57103-9.317933 1.57103-6.793243.206314-11.172947-1.193379-13.673385-3.67841-2.53406-2.452148-3.968195-5.568691-4.302548-9.349106z" fill="#2d3d49"/><path d="m28.203676 33.936668h-13.620557l-1.874209 6.387913h-12.221541l14.544457-38.697224h13.039866l14.544378 38.724751c-3.929657.090771-6.759907-.133396-8.490902-.672348-1.730911-.53896-3.300305-1.694019-4.7081-3.465031zm-2.507726-8.367689-4.276213-13.91094-4.249802 13.91094z" fill="#333"/></svg>