<svg clip-rule="evenodd" stroke-linecap="round" stroke-linejoin="round" stroke-miterlimit="10" viewBox="0 0 62 41" xmlns="http://www.w3.org/2000/svg"><g><path d="m27.0324 26.9481 11.1538-.6988c.2415 1.8116.7332 3.1918 1.4751 4.1407 1.2076 1.5354 2.9329 2.3032 5.1757 2.3032 1.6735 0 2.9632-.3925 3.8689-1.1775.9058-.785 1.3587-1.6951 1.3587-2.7302 0-.9834-.4313-1.8633-1.294-2.6397-.8626-.7764-2.8639-1.5096-6.0039-2.1997-5.1412-1.1559-8.8074-2.6914-10.9985-4.6064-2.2083-1.9151-3.3125-4.3563-3.3125-7.3238 0-1.9495.565-3.79123 1.6951-5.52512 1.13-1.73388 2.8294-3.09684 5.0981-4.08886 2.2687-.99203 5.3785-1.48804 9.3294-1.48804 4.8479 0 8.5443.90145 11.0891 2.70435 2.5447 1.80289 4.0586 4.67114 4.5417 8.60477l-11.0503.6469c-.2933-1.708-.9101-2.95016-1.8503-3.72653-.9403-.77637-2.2385-1.16455-3.8948-1.16455-1.3629 0-2.3895.28898-3.0796.86694-.6901.57797-1.0351 1.28104-1.0351 2.10914 0 .6038.2846 1.1473.854 1.6304.552.5003 1.8632.9661 3.9336 1.3974 5.124 1.1042 8.7945 2.2213 11.0114 3.3513 2.217 1.1301 3.8301 2.5319 4.8394 4.2054s1.5139 3.5454 1.5139 5.6157c0 2.4326-.6728 4.6754-2.0186 6.7285-1.3457 2.0531-3.2262 3.6101-5.6416 4.6711-2.4153 1.0611-5.4604 1.5916-9.1352 1.5916-6.4525 0-10.9209-1.2422-13.4053-3.7266-2.4844-2.4843-3.8904-5.6416-4.2182-9.4716z" fill="#2d3d49"/><path d="m27.9196 33.2366h-13.3535l-1.8375 6.2627h-11.981885l14.259285-37.93845h12.7842l14.2592 37.96545c-3.8526.089-6.6274-.1308-8.3244-.6592s-3.2356-1.6608-4.6158-3.3971zm-2.4585-8.2036-4.1924-13.6382-4.1665 13.6382z" fill="#333"/></g></svg>