<svg height="250" width="250" xmlns="http://www.w3.org/2000/svg"><path d="m13.864 165.45c-30.338-83.35-12.665-121.25 70.685-151.586s121.25-12.664 151.586 70.685 12.664 121.251-70.686 151.586-121.25 12.665-151.585-70.685" fill="#333740"/><path d="m86.2 76.858h-5.25c-4.5.01-9.234.89-13.09 3.567a14.529 14.529 0 0 0 -4.723 5.442 17.952 17.952 0 0 0 -1.759 8.123v75.325a2.6 2.6 0 0 0 2.6 2.6h10.259a2.6 2.6 0 0 0 2.6-2.6v-53.07h9.359a2.6 2.6 0 0 0 2.6-2.6v-8.79a2.6 2.6 0 0 0 -2.6-2.6h-9.355v-6.679a9.226 9.226 0 0 1 .452-3.286 2.057 2.057 0 0 1 .51-.81 2.306 2.306 0 0 1 1.244-.5 17.7 17.7 0 0 1 2.7-.127h4.456a2.6 2.6 0 0 0 2.6-2.6v-8.791a2.6 2.6 0 0 0 -2.6-2.6" fill="#fff"/><path d="m148.195 125.12a22.422 22.422 0 0 0 -7.53-17.367c-4.836-4.217-11.626-6.482-19.611-6.479-8.123 0-15.14 2.325-20.263 6.4a22.28 22.28 0 0 0 -8.582 16.592 2.6 2.6 0 0 0 2.6 2.723h10.863a2.6 2.6 0 0 0 2.594-2.378 8.553 8.553 0 0 1 3.515-6.129 15.172 15.172 0 0 1 9.273-2.725c4.052 0 6.965 1.1 8.823 2.715a8.427 8.427 0 0 1 2.854 6.646v.367a3.322 3.322 0 0 1 -.1.9l-.1.225a1.533 1.533 0 0 1 -.675.408 20.5 20.5 0 0 1 -4.49.921c-2.2.292-5.059.594-8.621 1.071h.006c-6.536.879-13.211 1.948-18.62 5a17.959 17.959 0 0 0 -6.722 6.434 19.869 19.869 0 0 0 -2.55 10.313 22.841 22.841 0 0 0 1.942 9.544 19.767 19.767 0 0 0 9.2 9.438 30.58 30.58 0 0 0 13.928 3.029c6.25.006 10.99-1.448 14.48-3.671a19.168 19.168 0 0 0 2.325-1.733v1.947a2.6 2.6 0 0 0 2.6 2.6h4.994l7.865-29.264zm-15.463 19.776a13 13 0 0 1 -3.463 9.328c-2.338 2.358-6.032 4.044-11.878 4.061-3.765.006-6.55-.821-8.215-2.015a5.77 5.77 0 0 1 -1.833-2.059 6.293 6.293 0 0 1 -.654-2.869v-.067a5.922 5.922 0 0 1 .838-3.206 8.741 8.741 0 0 1 4.238-3.2 29.744 29.744 0 0 1 7.209-1.788c3.706-.521 7.519-1.073 10.68-1.7a49.494 49.494 0 0 0 3.081-.706z" fill="#fff"/><path d="m191.737 69.455a2.607 2.607 0 0 0 -2.067-1.02h-13.064a2.6 2.6 0 0 0 -2.515 1.93l-25.897 96.37-1.277 4.761-1.759 6.539a2.6 2.6 0 0 0 2.515 3.279h13.064a2.6 2.6 0 0 0 2.515-1.927l28.933-107.672a2.614 2.614 0 0 0 -.448-2.261" fill="#a299ff"/></svg>