<svg height="23" viewBox="0 0 23 23" width="23" xmlns="http://www.w3.org/2000/svg"><path d="m16.8007812 14.015625c.8984376-1.4135417 1.4255209-3.090625 1.4255209-4.89348958 0-5.03723959-4.0789063-9.12213542-9.11015627-9.12213542-5.03723958 0-9.11614583 4.08489583-9.11614583 9.12213542 0 5.03723958 4.07890625 9.12213538 9.11015625 9.12213538 1.82682295 0 3.52786455-.5390625 4.95338545-1.4614583l.4132812-.2875 6.5046875 6.5046875 2.0184896-2.0544271-6.4986979-6.5046875zm-2.5815104-9.990625c1.3596354 1.35963542 2.1083334 3.16848958 2.1083334 5.09114583 0 1.92265627-.748698 3.73151037-2.1083334 5.09114587-1.3596354 1.3596354-3.1684896 2.1083333-5.0911458 2.1083333-1.92265625 0-3.73151042-.7486979-5.09114583-2.1083333-1.35963542-1.3596355-2.10833334-3.1684896-2.10833334-5.09114587 0-1.92265625.74869792-3.73151041 2.10833334-5.09114583 1.35963541-1.35963542 3.16848958-2.10833333 5.09114583-2.10833333 1.9226562 0 3.7315104.74869791 5.0911458 2.10833333z" fill="#2d3d49"/></svg>